<?xml version="1.0" standalone="no"?><!DOCTYPE svg PUBLIC "-//W3C//DTD SVG 1.1//EN" "http://www.w3.org/Graphics/SVG/1.1/DTD/svg11.dtd"><svg t="1486641830342" class="icon" style="" viewBox="0 0 1024 1024" version="1.1" xmlns="http://www.w3.org/2000/svg" p-id="12228" xmlns:xlink="http://www.w3.org/1999/xlink" width="16" height="16"><defs><style type="text/css"></style></defs><path d="M873.6 416h-188.8c12.8-44.8 28.8-115.2 19.2-188.8-6.4-60.8-41.6-105.6-92.8-124.8-38.4-12.8-76.8-6.4-99.2 16-25.6 25.6-38.4 76.8-51.2 128-9.6 35.2-16 70.4-28.8 89.6-32 54.4-102.4 76.8-115.2 80H224c-19.2 0-32 12.8-32 32v448c0 19.2 12.8 32 32 32h547.2C896 928 960 537.6 960 515.2c0-57.6-44.8-99.2-86.4-99.2zM96 416c-19.2 0-32 12.8-32 32v448c0 19.2 12.8 32 32 32s32-12.8 32-32V448c0-19.2-12.8-32-32-32z" fill="#666666" p-id="12229"></path></svg>