<?xml version="1.0" standalone="no"?><!DOCTYPE svg PUBLIC "-//W3C//DTD SVG 1.1//EN" "http://www.w3.org/Graphics/SVG/1.1/DTD/svg11.dtd"><svg t="1486603091240" class="icon" style="" viewBox="0 0 1024 1024" version="1.1" xmlns="http://www.w3.org/2000/svg" p-id="14821" xmlns:xlink="http://www.w3.org/1999/xlink" width="16" height="16"><defs><style type="text/css"></style></defs><path d="M859.733333 426.666667h-183.466666c14.933333-40.533333 34.133333-117.333333 23.466666-200.533334-4.266667-55.466667-38.4-98.133333-85.333333-113.066666-34.133333-10.666667-70.4-6.4-89.6 12.8-23.466667 23.466667-34.133333 70.4-46.933333 121.6-8.533333 36.266667-17.066667 72.533333-29.866667 91.733333-36.266667 59.733333-117.333333 85.333333-123.733333 87.466667H256c-12.8 0-21.333333 8.533333-21.333333 21.333333v450.133333c0 6.4 2.133333 10.666667 6.4 14.933334 4.266667 4.266667 8.533333 6.4 14.933333 6.4l76.8-2.133334c57.6 0 315.733333-2.133333 392.533333-2.133333 202.666667 0 213.333333-398.933333 213.333334-403.2 0-46.933333-42.666667-85.333333-78.933334-85.333333zM725.333333 872.533333c-85.333333 0-403.2 2.133333-403.2 2.133334H277.333333V469.333333H337.066667c4.266667-2.133333 104.533333-29.866667 149.333333-106.666666 14.933333-25.6 23.466667-61.866667 34.133333-102.4s21.333333-87.466667 36.266667-104.533334c4.266667-4.266667 23.466667-8.533333 44.8-2.133333 14.933333 4.266667 51.2 23.466667 57.6 78.933333 12.8 106.666667-32 204.8-32 206.933334-2.133333 6.4-2.133333 14.933333 2.133333 21.333333 4.266667 6.4 10.666667 10.666667 17.066667 10.666667h213.333333c12.8 0 36.266667 17.066667 36.266667 42.666666 0 70.4-29.866667 358.4-170.666667 358.4zM172.8 469.333333c12.8 0 21.333333-8.533333 21.333333-21.333333s-8.533333-21.333333-21.333333-21.333333h-64c-12.8 0-21.333333 8.533333-21.333333 21.333333v448c0 12.8 8.533333 21.333333 21.333333 21.333333h64c12.8 0 21.333333-8.533333 21.333333-21.333333s-8.533333-21.333333-21.333333-21.333333h-42.666667V469.333333h42.666667z" p-id="14822"></path></svg>