<?xml version="1.0" standalone="no"?><!DOCTYPE svg PUBLIC "-//W3C//DTD SVG 1.1//EN" "http://www.w3.org/Graphics/SVG/1.1/DTD/svg11.dtd"><svg t="1486603060245" class="icon" style="" viewBox="0 0 1024 1024" version="1.1" xmlns="http://www.w3.org/2000/svg" p-id="13912" xmlns:xlink="http://www.w3.org/1999/xlink" width="16" height="16"><defs><style type="text/css"></style></defs><path d="M789.333333 490.666667H243.2l243.2-238.933334c8.533333-8.533333 8.533333-21.333333 0-29.866666-8.533333-8.533333-21.333333-8.533333-29.866667 0l-277.333333 275.2c-8.533333 8.533333-8.533333 21.333333 0 29.866666 0 0 2.133333 0 2.133333 2.133334l275.2 277.333333c4.266667 4.266667 10.666667 6.4 14.933334 6.4 6.4 0 10.666667-2.133333 14.933333-6.4 8.533333-8.533333 8.533333-21.333333 0-29.866667L245.333333 533.333333H789.333333c12.8 0 21.333333-8.533333 21.333334-21.333333s-8.533333-21.333333-21.333334-21.333333z" p-id="13913"></path></svg>