<?xml version="1.0" standalone="no"?><!DOCTYPE svg PUBLIC "-//W3C//DTD SVG 1.1//EN" "http://www.w3.org/Graphics/SVG/1.1/DTD/svg11.dtd"><svg t="1486603056889" class="icon" style="" viewBox="0 0 1024 1024" version="1.1" xmlns="http://www.w3.org/2000/svg" p-id="13783" xmlns:xlink="http://www.w3.org/1999/xlink" width="16" height="16"><defs><style type="text/css"></style></defs><path d="M800 480H268.8l233.6-233.6c12.8-12.8 12.8-32 0-44.8-12.8-12.8-32-12.8-44.8 0l-284.8 288c-12.8 12.8-12.8 32 0 44.8h3.2l284.8 288c6.4 6.4 16 9.6 22.4 9.6 9.6 0 16-3.2 22.4-9.6 12.8-12.8 12.8-32 0-44.8L272 544H800c19.2 0 32-12.8 32-32s-16-32-32-32z" p-id="13784"></path></svg>