<?xml version="1.0" standalone="no"?><!DOCTYPE svg PUBLIC "-//W3C//DTD SVG 1.1//EN" "http://www.w3.org/Graphics/SVG/1.1/DTD/svg11.dtd"><svg t="1486602444759" class="icon" style="" viewBox="0 0 1024 1024" version="1.1" xmlns="http://www.w3.org/2000/svg" p-id="8445" xmlns:xlink="http://www.w3.org/1999/xlink" width="16" height="16"><defs><style type="text/css"></style></defs><path d="M864 192 512 192c0-52.928-43.072-96-96-96l-64 0C299.072 96 256 139.072 256 192L160 192C107.072 192 64 235.072 64 288l0 512c0 52.928 43.072 96 96 96l704 0c52.928 0 96-43.072 96-96L960 288C960 235.072 916.928 192 864 192zM512 736c-105.888 0-192-86.112-192-192s86.112-192 192-192 192 86.112 192 192S617.888 736 512 736zM816 416c-26.496 0-48-21.504-48-48 0-26.496 21.504-48 48-48 26.496 0 48 21.504 48 48C864 394.496 842.496 416 816 416z" p-id="8446"></path></svg>