<?xml version="1.0" standalone="no"?><!DOCTYPE svg PUBLIC "-//W3C//DTD SVG 1.1//EN" "http://www.w3.org/Graphics/SVG/1.1/DTD/svg11.dtd"><svg t="1486603186890" class="icon" style="" viewBox="0 0 1024 1024" version="1.1" xmlns="http://www.w3.org/2000/svg" p-id="16248" xmlns:xlink="http://www.w3.org/1999/xlink" width="16" height="16"><defs><style type="text/css"></style></defs><path d="M736 917.333333c-6.4 0-14.933333-2.133333-21.333333-6.4L512 797.866667l-202.666667 110.933333c-14.933333 8.533333-32 8.533333-44.8-2.133333-12.8-10.666667-21.333333-25.6-17.066666-42.666667l38.4-238.933333-166.4-172.8c-10.666667-10.666667-14.933333-27.733333-10.666667-42.666667 4.266667-14.933333 17.066667-25.6 34.133333-27.733333l151.466667-19.2c12.8-2.133333 23.466667 6.4 23.466667 19.2 2.133333 12.8-6.4 23.466667-19.2 23.466666l-149.333334 19.2 174.933334 179.2c4.266667 4.266667 6.4 10.666667 6.4 19.2l-40.533334 249.6 213.333334-117.333333c6.4-4.266667 14.933333-4.266667 21.333333 0l213.333333 117.333333-40.533333-251.733333c-2.133333-6.4 2.133333-12.8 6.4-19.2l170.666667-174.933333-238.933334-36.266667c-6.4-2.133333-12.8-6.4-17.066666-12.8L512 149.333333l-110.933333 226.133334c-4.266667 10.666667-17.066667 14.933333-27.733334 10.666666-10.666667-4.266667-14.933333-17.066667-10.666666-27.733333l110.933333-226.133333C482.133333 117.333333 497.066667 106.666667 512 106.666667c17.066667 0 32 8.533333 38.4 25.6l100.266667 215.466666L881.066667 384c17.066667 2.133333 29.866667 12.8 34.133333 29.866667 4.266667 14.933333 2.133333 32-10.666667 42.666666l-166.4 170.666667 38.4 241.066667c2.133333 17.066667-4.266667 32-17.066666 40.533333-6.4 4.266667-14.933333 8.533333-23.466667 8.533333z" p-id="16249"></path></svg>