<?xml version="1.0" standalone="no"?><!DOCTYPE svg PUBLIC "-//W3C//DTD SVG 1.1//EN" "http://www.w3.org/Graphics/SVG/1.1/DTD/svg11.dtd"><svg t="1486602755769" class="icon" style="" viewBox="0 0 1024 1024" version="1.1" xmlns="http://www.w3.org/2000/svg" p-id="10662" xmlns:xlink="http://www.w3.org/1999/xlink" width="16" height="16"><defs><style type="text/css"></style></defs><path d="M800 928 224 928c-52.928 0-96-43.072-96-96L128 192c0-52.928 43.072-96 96-96l576 0c52.928 0 96 43.072 96 96l0 640C896 884.928 852.928 928 800 928zM224 160C206.368 160 192 174.368 192 192l0 640c0 17.664 14.368 32 32 32l576 0c17.664 0 32-14.336 32-32L832 192c0-17.632-14.336-32-32-32L224 160z" p-id="10663"></path><path d="M640.992 544.864 287.776 544.864c-17.664 0-32-14.336-32-32s14.336-32 32-32l353.216 0c17.696 0 32 14.336 32 32S658.688 544.864 640.992 544.864z" p-id="10664"></path><path d="M734.88 735.52 287.648 735.52c-17.664 0-32-14.304-32-32s14.336-32 32-32l447.232 0c17.696 0 32 14.304 32 32S752.576 735.52 734.88 735.52z" p-id="10665"></path><path d="M303.712 305.344m-48 0a1.5 1.5 0 1 0 96 0 1.5 1.5 0 1 0-96 0Z" p-id="10666"></path><path d="M511.104 305.344m-48 0a1.5 1.5 0 1 0 96 0 1.5 1.5 0 1 0-96 0Z" p-id="10667"></path><path d="M719.232 305.344m-48 0a1.5 1.5 0 1 0 96 0 1.5 1.5 0 1 0-96 0Z" p-id="10668"></path></svg>