<?xml version="1.0" standalone="no"?><!DOCTYPE svg PUBLIC "-//W3C//DTD SVG 1.1//EN" "http://www.w3.org/Graphics/SVG/1.1/DTD/svg11.dtd"><svg t="1486641732180" class="icon" style="" viewBox="0 0 1024 1024" version="1.1" xmlns="http://www.w3.org/2000/svg" p-id="10288" xmlns:xlink="http://www.w3.org/1999/xlink" width="16" height="16"><defs><style type="text/css"></style></defs><path d="M545.856 640c-0.416 0-0.8 0-1.216 0-17.216 0-33.12-13.12-44.832-25.952l-36.992-43.392c-11.904-13.056-10.944-34.688 2.112-46.56 13.088-11.936 33.312-11.648 45.216 1.408l36.992 40.256 173.472-179.136-49.888-54.144-72 74.144c-12.48 12.544-32.704 12.672-45.248 0.192-12.576-12.416-12.672-32.704-0.256-45.248l73.44-74.176c12.128-12.256 28.992-18.336 45.408-18.752 17.184 0.16 33.184 7.168 45.056 19.68l49.888 52.512c23.872 25.12 23.52 65.728-0.736 90.464l-176 184.448C578.272 627.872 562.592 640 545.856 640z" p-id="10289"></path><path d="M351.968 754.592c-16.32 0-32.64-6.048-45.088-18.208l-50.432-49.216c-12.224-11.936-19.04-27.936-19.2-45.056-0.128-17.152 6.4-33.28 18.464-45.44l179.04-187.104C446.784 397.44 462.848 384 479.968 384c0.032 0 0.096 0 0.16 0 17.088 0 33.12 13.344 45.152 25.376l41.312 44.672c12.512 12.512 12.512 34.432 0 46.912-12.512 12.512-32.736 13.344-45.248 0.832l-41.312-40.896-178.848 180.608 50.4 48.96 74.944-73.344c12.608-12.416 32.8-12.32 45.28 0.288 12.416 12.576 12.32 32.832-0.224 45.248l-74.176 73.408C384.896 748.384 368.416 754.592 351.968 754.592z" p-id="10290"></path><path d="M512 960C264.96 960 64 759.04 64 512S264.96 64 512 64s448 200.96 448 448S759.04 960 512 960zM512 128C300.256 128 128 300.256 128 512c0 211.744 172.256 384 384 384 211.744 0 384-172.256 384-384C896 300.256 723.744 128 512 128z" p-id="10291"></path></svg>