<?xml version="1.0" standalone="no"?><!DOCTYPE svg PUBLIC "-//W3C//DTD SVG 1.1//EN" "http://www.w3.org/Graphics/SVG/1.1/DTD/svg11.dtd"><svg t="1486602168859" class="icon" style="" viewBox="0 0 1024 1024" version="1.1" xmlns="http://www.w3.org/2000/svg" p-id="6111" xmlns:xlink="http://www.w3.org/1999/xlink" width="16" height="16"><defs><style type="text/css"></style></defs><path d="M923.424 447.744" p-id="6112"></path><path d="M512.064 963.296c-96.16 0-189.344-30.816-267.68-89.472-95.744-71.712-157.856-176.48-174.848-294.912-16.992-118.464 13.152-236.448 84.864-332.224 148.096-197.76 429.44-238.08 627.136-90.08 82.88 62.08 142.016 151.584 166.56 252 4.192 17.184-6.336 34.496-23.488 38.688-17.152 4.064-34.496-6.304-38.688-23.488-20.992-86.048-71.68-162.752-142.752-215.968C573.792 80.96 332.608 115.552 205.632 285.056c-61.472 82.08-87.296 183.2-72.704 284.736 14.56 101.536 67.808 191.296 149.888 252.736 169.536 127.04 410.688 92.384 537.6-77.12 33.216-44.384 56-94.112 67.648-147.84 3.776-17.28 20.896-28.256 38.048-24.512 17.28 3.744 28.256 20.8 24.512 38.048-13.664 62.784-40.224 120.832-78.976 172.672-71.712 95.744-176.48 157.888-294.976 174.848C555.072 961.76 533.504 963.296 512.064 963.296z" p-id="6113"></path></svg>