<?xml version="1.0" standalone="no"?><!DOCTYPE svg PUBLIC "-//W3C//DTD SVG 1.1//EN" "http://www.w3.org/Graphics/SVG/1.1/DTD/svg11.dtd"><svg t="1486641802730" class="icon" style="" viewBox="0 0 1024 1024" version="1.1" xmlns="http://www.w3.org/2000/svg" p-id="11453" xmlns:xlink="http://www.w3.org/1999/xlink" width="16" height="16"><defs><style type="text/css"></style></defs><path d="M512 64C317.92 64 160 221.92 160 416c0 187.36 315.424 520.032 328.832 534.08C494.88 956.448 503.264 960 512 960c0.224 0 0.48 0 0.704 0 8.992 0 17.472-4.192 23.392-10.944l109.216-125.12C790.432 646.176 864 508.928 864 416 864 221.92 706.08 64 512 64zM512 576c-88.384 0-160-71.616-160-160s71.616-160 160-160 160 71.616 160 160S600.384 576 512 576z" p-id="11454"></path></svg>