<?xml version="1.0" standalone="no"?><!DOCTYPE svg PUBLIC "-//W3C//DTD SVG 1.1//EN" "http://www.w3.org/Graphics/SVG/1.1/DTD/svg11.dtd"><svg t="1486641514693" class="icon" style="" viewBox="0 0 1024 1024" version="1.1" xmlns="http://www.w3.org/2000/svg" p-id="7418" xmlns:xlink="http://www.w3.org/1999/xlink" width="16" height="16"><defs><style type="text/css"></style></defs><path d="M512 928c-10.336 0-20.032-4.992-26.016-13.408l-64.896-90.848C213.344 787.168 64 630.976 64 448 64 236.256 264.96 64 512 64s448 172.256 448 384c0 183.008-149.344 339.168-357.056 375.712l-64.896 90.88C532.032 923.008 522.336 928 512 928zM512 128C300.256 128 128 271.552 128 448c0 154.976 132.928 287.328 316.064 314.656 8.576 1.28 16.288 6.016 21.312 13.056L512 840.928l46.624-65.248c5.024-7.072 12.704-11.776 21.312-13.056C763.072 735.328 896 603.008 896 448 896 271.552 723.744 128 512 128z" p-id="7419"></path><path d="M288.032 512c-35.296 0-64-28.704-64-64s28.704-64 64-64 64 28.704 64 64S323.328 512 288.032 512zM288.064 448C288.032 448 288 448 288 448l0.032 32L288.064 448z" p-id="7420"></path><path d="M736.032 512c-35.296 0-64-28.704-64-64s28.704-64 64-64 64 28.704 64 64S771.328 512 736.032 512zM736.064 448C736.032 448 736 448 736 448l0.032 32L736.064 448z" p-id="7421"></path><path d="M512.032 512c-35.296 0-64-28.704-64-64s28.704-64 64-64c35.296 0 64 28.704 64 64S547.328 512 512.032 512zM512.064 448c0 0-0.064 0-0.064 0l0.032 32L512.064 448z" p-id="7422"></path></svg>