<?xml version="1.0" standalone="no"?><!DOCTYPE svg PUBLIC "-//W3C//DTD SVG 1.1//EN" "http://www.w3.org/Graphics/SVG/1.1/DTD/svg11.dtd"><svg t="1486641844745" class="icon" style="" viewBox="0 0 1024 1024" version="1.1" xmlns="http://www.w3.org/2000/svg" p-id="12487" xmlns:xlink="http://www.w3.org/1999/xlink" width="16" height="16"><defs><style type="text/css"></style></defs><path d="M512 64C264.96 64 64 236.256 64 448c0 182.976 149.344 339.168 357.056 375.744l64.896 90.848C491.968 923.008 501.664 928 512 928s20.032-4.992 26.048-13.408l64.896-90.88C810.656 787.168 960 631.008 960 448 960 236.256 759.04 64 512 64zM288.032 512c-35.296 0-64-28.704-64-64s28.704-64 64-64 64 28.704 64 64S323.328 512 288.032 512zM512.032 512c-35.296 0-64-28.704-64-64s28.704-64 64-64c35.296 0 64 28.704 64 64S547.328 512 512.032 512zM736.032 512c-35.296 0-64-28.704-64-64s28.704-64 64-64 64 28.704 64 64S771.328 512 736.032 512z" p-id="12488"></path></svg>