<?xml version="1.0" standalone="no"?><!DOCTYPE svg PUBLIC "-//W3C//DTD SVG 1.1//EN" "http://www.w3.org/Graphics/SVG/1.1/DTD/svg11.dtd"><svg t="1486641481958" class="icon" style="" viewBox="0 0 1024 1024" version="1.1" xmlns="http://www.w3.org/2000/svg" p-id="6766" xmlns:xlink="http://www.w3.org/1999/xlink" width="16" height="16"><defs><style type="text/css"></style></defs><path d="M736 992 288 992c-52.928 0-96-43.072-96-96L192 128c0-52.928 43.072-96 96-96l448 0c52.928 0 96 43.072 96 96l0 768C832 948.928 788.928 992 736 992zM288 96C270.368 96 256 110.368 256 128l0 768c0 17.664 14.368 32 32 32l448 0c17.664 0 32-14.336 32-32L768 128c0-17.632-14.336-32-32-32L288 96z" p-id="6767"></path><path d="M512 896.416c-35.296 0-64-28.704-64-64s28.704-64 64-64c35.296 0 64 28.704 64 64S547.296 896.416 512 896.416zM512.032 832.416c0 0-0.064 0-0.064 0.032L512 864.416 512.032 832.416z" p-id="6768"></path><path d="M704 736 320 736c-17.664 0-32-14.304-32-32L288 160c0-17.664 14.336-32 32-32l384 0c17.696 0 32 14.336 32 32l0 544C736 721.696 721.696 736 704 736zM352 672l320 0L672 192 352 192 352 672z" p-id="6769"></path></svg>