<?xml version="1.0" standalone="no"?><!DOCTYPE svg PUBLIC "-//W3C//DTD SVG 1.1//EN" "http://www.w3.org/Graphics/SVG/1.1/DTD/svg11.dtd"><svg t="1486641838063" class="icon" style="" viewBox="0 0 1024 1024" version="1.1" xmlns="http://www.w3.org/2000/svg" p-id="12357" xmlns:xlink="http://www.w3.org/1999/xlink" width="16" height="16"><defs><style type="text/css"></style></defs><path d="M512 864.416 512.032 832.416 511.968 832.448Z" p-id="12358"></path><path d="M736 64 288 64C252.672 64 224 92.672 224 128l0 768c0 35.328 28.672 64 64 64l448 0c35.328 0 64-28.672 64-64L800 128C800 92.672 771.328 64 736 64zM512 896.416c-35.296 0-64-28.704-64-64s28.704-64 64-64c35.296 0 64 28.704 64 64S547.296 896.416 512 896.416zM704 704 320 704 320 160l384 0L704 704z" p-id="12359"></path></svg>