<?xml version="1.0" standalone="no"?><!DOCTYPE svg PUBLIC "-//W3C//DTD SVG 1.1//EN" "http://www.w3.org/Graphics/SVG/1.1/DTD/svg11.dtd"><svg t="1486602387196" class="icon" style="" viewBox="0 0 1024 1024" version="1.1" xmlns="http://www.w3.org/2000/svg" p-id="6500" xmlns:xlink="http://www.w3.org/1999/xlink" width="16" height="16"><defs><style type="text/css"></style></defs><path d="M368.992 830.304l0 1.184c-6.496 0-11.264 0.512-14.048 0.512l-3.296 0c-69.248 0-124.992-55.36-126.944-124.512-1.056-33.952 11.2-66.816 34.464-91.488 23.264-24.672 54.72-39.136 88.64-40.096 0.32 0 3.744-0.192 4.032-0.192 26.592 0 52.064 8.32 73.984 24.288 30.752 10.848 61.824-4.32 92.192-45.024 30.208-40.416 36.576-72.448 18.88-95.232-6.304-4.544-12.352-9.92-18.368-16.32-1.056-1.024-2.048-2.144-2.976-3.296-19.872-22.432-31.264-50.816-32.16-80.064-1.92-70.176 53.376-128.8 123.232-130.784 0.32 0 3.584-0.064 3.904-0.064 58.784 0 110.752 41.664 123.552 99.072 10.336 31.872 36.704 158.176-90.176 327.84C526.528 813.312 412.576 830.304 368.992 830.304zM364.896 766.208c18.976 0.416 118.592-2.24 227.616-148.416 111.36-148.928 86.016-253.376 79.776-272.832-7.104-31.168-32.8-51.776-61.888-51.776-36.704 1.024-64.096 30.144-63.168 64.992 0.576 18.496 9.312 31.968 16.544 39.968 0.224 0.256 0.48 0.544 0.672 0.8 4.032 4.352 7.808 7.648 11.552 10.08 2.368 1.568 4.576 3.424 6.432 5.568 19.616 22.112 57.6 83.84-13.28 178.624-45.792 61.28-92.704 74.112-124 74.144-16.096 0-32.096-3.296-47.52-9.728-2.656-1.12-5.184-2.592-7.456-4.384-7.968-6.272-21.088-13.76-38.432-13.76-18.976 0.544-34.56 7.52-46.048 19.712-11.52 12.256-17.6 28.288-17.088 45.12 0.96 34.4 28.64 61.248 62.976 61.248 0.16 0 0.192 0.032 0.064 0.064 1.184-0.192 2.496-0.352 3.264-0.416C358.336 765.184 361.696 765.44 364.896 766.208z" p-id="6501"></path><path d="M512 963.328c-60.224 0-118.624-11.744-173.6-34.88-16.288-6.88-23.936-25.632-17.056-41.92 6.848-16.32 25.632-23.904 41.92-17.088 47.072 19.808 97.12 29.888 148.768 29.888 211.744 0 384-172.256 384-384 0-211.744-172.256-384-384-384-211.744 0-384 172.256-384 384 0 72.384 20.256 142.88 58.56 203.904 9.376 14.976 4.864 34.72-10.08 44.096-14.976 9.408-34.72 4.896-44.128-10.08C87.616 681.984 64 599.712 64 515.328c0-247.008 200.96-448 448-448s448 200.96 448 448C960 762.336 759.04 963.328 512 963.328z" p-id="6502"></path></svg>