<?xml version="1.0" standalone="no"?><!DOCTYPE svg PUBLIC "-//W3C//DTD SVG 1.1//EN" "http://www.w3.org/Graphics/SVG/1.1/DTD/svg11.dtd"><svg t="1486641498463" class="icon" style="" viewBox="0 0 1024 1024" version="1.1" xmlns="http://www.w3.org/2000/svg" p-id="7027" xmlns:xlink="http://www.w3.org/1999/xlink" width="16" height="16"><defs><style type="text/css"></style></defs><path d="M512 960C264.96 960 64 759.04 64 512S264.96 64 512 64s448 200.96 448 448S759.04 960 512 960zM512 128C300.256 128 128 300.256 128 512c0 211.744 172.256 384 384 384 211.744 0 384-172.256 384-384C896 300.256 723.744 128 512 128z" p-id="7028"></path><path d="M290.368 524.352c0.032 0.128 0.192 0.256 0.256 0.384 1.536 3.616 3.648 7.072 6.592 10.048 0.032 0.032 0.064 0.032 0.096 0.064s0.032 0.064 0.064 0.096l158.912 159.36c12.48 12.512 32.704 12.576 45.248 0.064 12.512-12.48 12.544-32.704 0.064-45.248l-103.328-103.616 305.056 0c17.664 0 32-14.336 32-32s-14.336-32-32-32l-306.752 0 106.112-104.96c12.576-12.448 12.672-32.672 0.256-45.248-6.24-6.336-14.496-9.504-22.752-9.504-8.128 0-16.256 3.104-22.496 9.248l-160.256 158.496C288 498.912 285.632 512.704 290.368 524.352z" p-id="7029"></path></svg>