<?xml version="1.0" standalone="no"?><!DOCTYPE svg PUBLIC "-//W3C//DTD SVG 1.1//EN" "http://www.w3.org/Graphics/SVG/1.1/DTD/svg11.dtd"><svg t="1486641678273" class="icon" style="" viewBox="0 0 1024 1024" version="1.1" xmlns="http://www.w3.org/2000/svg" p-id="9632" xmlns:xlink="http://www.w3.org/1999/xlink" width="16" height="16"><defs><style type="text/css"></style></defs><path d="M512 960C264.96 960 64 759.04 64 512S264.96 64 512 64s448 200.96 448 448S759.04 960 512 960zM512 128C300.256 128 128 300.256 128 512c0 211.744 172.256 384 384 384 211.744 0 384-172.256 384-384C896 300.256 723.744 128 512 128z" p-id="9633"></path><path d="M694.56 522.144c-12.544-12.608-33.376-12.64-45.952-0.064L544 625.984 544 319.328c0-17.76-14.208-32.16-32-32.16-17.76 0-32 14.4-32 32.16l0 308.32-105.216-106.688c-12.48-12.608-32.704-12.736-45.312-0.256C316.832 533.216 316.8 553.6 329.28 566.208l159.36 161.056c6.272 6.336 14.592 9.568 22.88 9.568 8.16 0 16.384-3.168 22.624-9.312 0.032-0.064 0.032-0.064 0.064-0.128 0.032 0 0.064 0 0.096-0.064l160.192-159.68C707.072 555.104 707.104 534.72 694.56 522.144z" p-id="9634"></path></svg>