<?xml version="1.0" standalone="no"?><!DOCTYPE svg PUBLIC "-//W3C//DTD SVG 1.1//EN" "http://www.w3.org/Graphics/SVG/1.1/DTD/svg11.dtd"><svg t="1486641682143" class="icon" style="" viewBox="0 0 1024 1024" version="1.1" xmlns="http://www.w3.org/2000/svg" p-id="9762" xmlns:xlink="http://www.w3.org/1999/xlink" width="16" height="16"><defs><style type="text/css"></style></defs><path d="M512 960C264.96 960 64 759.04 64 512S264.96 64 512 64s448 200.96 448 448S759.04 960 512 960zM512 128C300.256 128 128 300.256 128 512c0 211.744 172.256 384 384 384 211.744 0 384-172.256 384-384C896 300.256 723.744 128 512 128z" p-id="9763"></path><path d="M694.464 458.368l-158.496-160.256c-9.344-9.472-23.168-11.84-34.784-7.136-0.736 0.288-1.312 0.992-2.016 1.344-2.976 1.472-5.952 3.072-8.448 5.536-0.032 0.032-0.032 0.064-0.064 0.096s-0.064 0.032-0.096 0.064l-159.36 158.912c-12.512 12.48-12.544 32.736-0.064 45.248 6.24 6.272 14.464 9.408 22.656 9.408 8.16 0 16.352-3.104 22.592-9.344L480 398.944 480 704c0 17.696 14.336 32 32 32s32-14.304 32-32l0-306.752 104.96 106.112c6.24 6.336 14.496 9.504 22.752 9.504 8.128 0 16.256-3.072 22.496-9.248C706.784 491.2 706.912 470.944 694.464 458.368z" p-id="9764"></path></svg>