<?xml version="1.0" standalone="no"?><!DOCTYPE svg PUBLIC "-//W3C//DTD SVG 1.1//EN" "http://www.w3.org/Graphics/SVG/1.1/DTD/svg11.dtd"><svg t="1486641350795" class="icon" style="" viewBox="0 0 1024 1024" version="1.1" xmlns="http://www.w3.org/2000/svg" p-id="4416" xmlns:xlink="http://www.w3.org/1999/xlink" width="16" height="16"><defs><style type="text/css"></style></defs><path d="M384 928 192 928c-52.928 0-96-43.072-96-96l0-192c0-52.928 43.072-96 96-96l192 0c52.928 0 96 43.072 96 96l0 192C480 884.928 436.928 928 384 928zM192 608c-17.632 0-32 14.336-32 32l0 192c0 17.664 14.368 32 32 32l192 0c17.632 0 32-14.336 32-32l0-192c0-17.664-14.368-32-32-32L192 608z" p-id="4417"></path><path d="M736 896c-17.696 0-32-14.304-32-32l0-64c0-17.696 14.304-32 32-32s32 14.304 32 32l0 64C768 881.696 753.696 896 736 896z" p-id="4418"></path><path d="M864 896c-17.696 0-32-14.304-32-32l0-96c0-17.696 14.304-32 32-32s32 14.304 32 32l0 96C896 881.696 881.696 896 864 896z" p-id="4419"></path><path d="M864 672c-17.696 0-32-14.304-32-32l0-64c0-17.696 14.304-32 32-32s32 14.304 32 32l0 64C896 657.696 881.696 672 864 672z" p-id="4420"></path><path d="M736 736c-17.696 0-32-14.304-32-32l0-128c0-17.696 14.304-32 32-32s32 14.304 32 32l0 128C768 721.696 753.696 736 736 736z" p-id="4421"></path><path d="M608 896c-17.696 0-32-14.304-32-32l0-128c0-17.696 14.304-32 32-32s32 14.304 32 32l0 128C640 881.696 625.696 896 608 896z" p-id="4422"></path><path d="M608 640c-17.696 0-32-14.304-32-32l0-32c0-17.696 14.304-32 32-32s32 14.304 32 32l0 32C640 625.696 625.696 640 608 640z" p-id="4423"></path><path d="M320 800 256 800c-17.664 0-32-14.304-32-32l0-64c0-17.696 14.336-32 32-32l64 0c17.664 0 32 14.304 32 32l0 64C352 785.696 337.664 800 320 800z" p-id="4424"></path><path d="M384 480 192 480c-52.928 0-96-43.072-96-96L96 192c0-52.928 43.072-96 96-96l192 0c52.928 0 96 43.072 96 96l0 192C480 436.928 436.928 480 384 480zM192 160C174.368 160 160 174.368 160 192l0 192c0 17.632 14.368 32 32 32l192 0c17.632 0 32-14.368 32-32L416 192c0-17.632-14.368-32-32-32L192 160z" p-id="4425"></path><path d="M320 352 256 352c-17.664 0-32-14.336-32-32L224 256c0-17.664 14.336-32 32-32l64 0c17.664 0 32 14.336 32 32l0 64C352 337.664 337.664 352 320 352z" p-id="4426"></path><path d="M832 480l-192 0c-52.928 0-96-43.072-96-96L544 192c0-52.928 43.072-96 96-96l192 0c52.928 0 96 43.072 96 96l0 192C928 436.928 884.928 480 832 480zM640 160c-17.664 0-32 14.368-32 32l0 192c0 17.632 14.336 32 32 32l192 0c17.664 0 32-14.368 32-32L864 192c0-17.632-14.336-32-32-32L640 160z" p-id="4427"></path><path d="M768 352l-64 0c-17.696 0-32-14.336-32-32L672 256c0-17.664 14.304-32 32-32l64 0c17.696 0 32 14.336 32 32l0 64C800 337.664 785.696 352 768 352z" p-id="4428"></path></svg>