<?xml version="1.0" standalone="no"?><!DOCTYPE svg PUBLIC "-//W3C//DTD SVG 1.1//EN" "http://www.w3.org/Graphics/SVG/1.1/DTD/svg11.dtd"><svg t="1486602750878" class="icon" style="" viewBox="0 0 1024 1024" version="1.1" xmlns="http://www.w3.org/2000/svg" p-id="10531" xmlns:xlink="http://www.w3.org/1999/xlink" width="16" height="16"><defs><style type="text/css"></style></defs><path d="M512 784.352m-48 0a1.5 1.5 0 1 0 96 0 1.5 1.5 0 1 0-96 0Z" p-id="10532"></path><path d="M512 960C264.96 960 64 759.04 64 512S264.96 64 512 64s448 200.96 448 448S759.04 960 512 960zM512 128.288C300.416 128.288 128.288 300.416 128.288 512c0 211.552 172.128 383.712 383.712 383.712 211.552 0 383.712-172.16 383.712-383.712C895.712 300.416 723.552 128.288 512 128.288z" p-id="10533"></path><path d="M512 673.696c-17.664 0-32-14.336-32-32l0-54.112c0-52.352 40-92.352 75.328-127.648C581.216 434.016 608 407.264 608 385.92c0-53.344-43.072-96.736-96-96.736-53.824 0-96 41.536-96 94.56 0 17.664-14.336 32-32 32s-32-14.336-32-32c0-87.424 71.776-158.56 160-158.56s160 72.096 160 160.736c0 47.904-36.32 84.192-71.424 119.296C572.736 532.992 544 561.728 544 587.552l0 54.112C544 659.328 529.664 673.696 512 673.696z" p-id="10534"></path></svg>