<?xml version="1.0" standalone="no"?><!DOCTYPE svg PUBLIC "-//W3C//DTD SVG 1.1//EN" "http://www.w3.org/Graphics/SVG/1.1/DTD/svg11.dtd"><svg t="1486602987534" class="icon" style="" viewBox="0 0 1024 1024" version="1.1" xmlns="http://www.w3.org/2000/svg" p-id="12227" xmlns:xlink="http://www.w3.org/1999/xlink" width="16" height="16"><defs><style type="text/css"></style></defs><path d="M512 65.984C266.08 65.984 65.984 266.08 65.984 512c0 245.952 200.064 446.016 446.016 446.016 245.952 0 446.016-200.064 446.016-446.016C958.016 266.08 757.952 65.984 512 65.984zM512 894.016C301.344 894.016 129.984 722.624 129.984 512 129.984 301.344 301.344 129.984 512 129.984c210.624 0 382.016 171.36 382.016 382.016C894.016 722.624 722.624 894.016 512 894.016z" p-id="12228"></path><path d="M512 352c-88.224 0-160 71.776-160 160s71.776 160 160 160 160-71.776 160-160S600.224 352 512 352z" p-id="12229"></path></svg>