<?xml version="1.0" standalone="no"?><!DOCTYPE svg PUBLIC "-//W3C//DTD SVG 1.1//EN" "http://www.w3.org/Graphics/SVG/1.1/DTD/svg11.dtd"><svg t="1486641509112" class="icon" style="" viewBox="0 0 1024 1024" version="1.1" xmlns="http://www.w3.org/2000/svg" p-id="7289" xmlns:xlink="http://www.w3.org/1999/xlink" width="16" height="16"><defs><style type="text/css"></style></defs><path d="M822.624 521.376c-12.512-12.512-32.736-12.512-45.248 0L544 754.752 544 192c0-17.664-14.336-32-32-32s-32 14.336-32 32l0 562.752-233.376-233.376c-12.512-12.512-32.736-12.512-45.248 0s-12.512 32.736 0 45.248l288 287.968c2.944 2.976 6.496 5.312 10.432 6.944C503.68 863.168 507.84 864 512 864s8.32-0.832 12.224-2.464c3.936-1.632 7.456-3.968 10.432-6.944l288-287.968C835.136 554.112 835.136 533.888 822.624 521.376z" p-id="7290"></path></svg>