<?xml version="1.0" standalone="no"?><!DOCTYPE svg PUBLIC "-//W3C//DTD SVG 1.1//EN" "http://www.w3.org/Graphics/SVG/1.1/DTD/svg11.dtd"><svg t="1486641669036" class="icon" style="" viewBox="0 0 1024 1024" version="1.1" xmlns="http://www.w3.org/2000/svg" p-id="9373" xmlns:xlink="http://www.w3.org/1999/xlink" width="16" height="16"><defs><style type="text/css"></style></defs><path d="M939.456 256.224c-16.672-5.984-34.976 2.72-40.896 19.36l-24.768 69.344c-28.992-65.312-74.784-122.72-133.088-165.92C555.328 41.728 291.296 79.232 152.32 262.656c-67.264 88.768-95.616 198.176-79.84 308.032 15.84 110.304 74.208 207.776 164.352 274.496 75.424 55.808 163.808 82.752 251.456 82.752 128.032 0 254.56-57.44 336.992-166.272 36.48-48.128 61.472-102.08 74.208-160.416 3.776-17.248-7.136-34.304-24.416-38.08-17.216-3.712-34.304 7.104-38.08 24.416-10.784 49.184-31.872 94.752-62.72 135.456-117.888 155.52-341.92 187.232-499.392 70.72-76.288-56.48-125.664-138.912-139.072-232.16-13.344-92.8 10.656-185.248 67.488-260.288 117.856-155.584 341.792-187.424 499.328-70.848 57.024 42.24 99.84 100.608 122.976 166.624l-109.984-42.944c-16.416-6.368-35.008 1.696-41.44 18.176-6.432 16.48 1.728 35.008 18.176 41.44l161.856 63.2c3.808 1.472 7.744 2.208 11.616 2.208 0.544 0 1.024-0.192 1.568-0.224 1.216 0.128 2.432 0.64 3.648 0.64 13.12 0 25.472-8.16 30.112-21.248l57.632-161.184C964.768 280.48 956.096 262.144 939.456 256.224z" p-id="9374"></path></svg>