<?xml version="1.0" standalone="no"?><!DOCTYPE svg PUBLIC "-//W3C//DTD SVG 1.1//EN" "http://www.w3.org/Graphics/SVG/1.1/DTD/svg11.dtd"><svg t="1486602405526" class="icon" style="" viewBox="0 0 1024 1024" version="1.1" xmlns="http://www.w3.org/2000/svg" p-id="7017" xmlns:xlink="http://www.w3.org/1999/xlink" width="16" height="16"><defs><style type="text/css"></style></defs><path d="M512 960C264.96 960 64 759.04 64 512S264.96 64 512 64s448 200.96 448 448S759.04 960 512 960zM512 128C300.256 128 128 300.256 128 512c0 211.744 172.256 384 384 384 211.744 0 384-172.256 384-384C896 300.256 723.744 128 512 128z" p-id="7018"></path><path d="M668.832 501.152c-0.032-0.128-0.192-0.256-0.256-0.384-1.536-3.616-3.648-7.072-6.592-10.048-0.032-0.032-0.064-0.032-0.096-0.064s-0.032-0.064-0.064-0.096l-158.912-159.36c-12.48-12.512-32.736-12.576-45.248-0.064-12.512 12.48-12.544 32.736-0.064 45.248l136.288 136.672-137.408 135.904c-12.576 12.448-12.672 32.672-0.256 45.248 6.24 6.336 14.496 9.504 22.752 9.504 8.128 0 16.256-3.104 22.496-9.248l160.256-158.496C671.232 526.592 673.6 512.768 668.832 501.152z" p-id="7019"></path></svg>