<?xml version="1.0" standalone="no"?><!DOCTYPE svg PUBLIC "-//W3C//DTD SVG 1.1//EN" "http://www.w3.org/Graphics/SVG/1.1/DTD/svg11.dtd"><svg t="1486602079457" class="icon" style="" viewBox="0 0 1024 1024" version="1.1" xmlns="http://www.w3.org/2000/svg" p-id="4687" xmlns:xlink="http://www.w3.org/1999/xlink" width="16" height="16"><defs><style type="text/css"></style></defs><path d="M512 960C264.96 960 64 759.04 64 512S264.96 64 512 64s448 200.96 448 448S759.04 960 512 960zM512 128.288C300.416 128.288 128.288 300.416 128.288 512c0 211.552 172.128 383.712 383.712 383.712 211.552 0 383.712-172.16 383.712-383.712C895.712 300.416 723.552 128.288 512 128.288z" p-id="4688"></path><path d="M726.976 393.184c-12.544-12.448-32.832-12.32-45.248 0.256l-233.28 235.84-103.264-106.112c-12.352-12.704-32.608-12.928-45.248-0.64-12.672 12.32-12.96 32.608-0.64 45.248l126.016 129.504c0.064 0.096 0.192 0.096 0.256 0.192 0.064 0.064 0.096 0.192 0.16 0.256 2.016 1.984 4.512 3.2 6.88 4.544 1.248 0.672 2.24 1.792 3.52 2.304 3.872 1.6 8 2.4 12.096 2.4 4.064 0 8.128-0.8 11.968-2.336 1.248-0.512 2.208-1.536 3.392-2.176 2.4-1.344 4.896-2.528 6.944-4.544 0.064-0.064 0.096-0.192 0.192-0.256 0.064-0.096 0.16-0.128 0.256-0.192l256.224-259.008C739.648 425.856 739.52 405.6 726.976 393.184z" p-id="4689"></path></svg>