<?xml version="1.0" standalone="no"?><!DOCTYPE svg PUBLIC "-//W3C//DTD SVG 1.1//EN" "http://www.w3.org/Graphics/SVG/1.1/DTD/svg11.dtd"><svg t="1486603070022" class="icon" style="" viewBox="0 0 1024 1024" version="1.1" xmlns="http://www.w3.org/2000/svg" p-id="14300" xmlns:xlink="http://www.w3.org/1999/xlink" width="16" height="16"><defs><style type="text/css"></style></defs><path d="M514.133333 85.333333c-238.933333 0-426.666667 187.733333-426.666666 426.666667C87.466667 746.666667 277.333333 938.666667 512 938.666667c234.666667 0 426.666667-192 426.666667-426.666667 0-236.8-192-426.666667-424.533334-426.666667z m162.133334 558.933334c8.533333 8.533333 8.533333 21.333333 0 29.866666-4.266667 4.266667-10.666667 6.4-14.933334 6.4-6.4 0-10.666667-2.133333-14.933333-6.4L512 539.733333l-136.533333 134.4c-4.266667 4.266667-10.666667 6.4-14.933334 6.4-6.4 0-10.666667-2.133333-14.933333-6.4-8.533333-8.533333-8.533333-21.333333 0-29.866666l134.4-134.4-134.4-134.4c-8.533333-8.533333-8.533333-21.333333 0-29.866667 8.533333-8.533333 21.333333-8.533333 29.866667 0l134.4 134.4 134.4-134.4c8.533333-8.533333 21.333333-8.533333 29.866666 0 8.533333 8.533333 8.533333 21.333333 0 29.866667l-134.4 134.4 136.533334 134.4z" p-id="14301"></path></svg>