<?xml version="1.0" standalone="no"?><!DOCTYPE svg PUBLIC "-//W3C//DTD SVG 1.1//EN" "http://www.w3.org/Graphics/SVG/1.1/DTD/svg11.dtd"><svg t="1486641881926" class="icon" style="" viewBox="0 0 1024 1024" version="1.1" xmlns="http://www.w3.org/2000/svg" p-id="13522" xmlns:xlink="http://www.w3.org/1999/xlink" width="16" height="16"><defs><style type="text/css"></style></defs><path d="M712.416 357.056l-233.344 235.808-103.264-106.112c-12.384-12.704-32.608-12.928-45.248-0.64-12.672 12.32-12.96 32.608-0.64 45.248l126.016 129.504c0.064 0.096 0.192 0.096 0.256 0.192 0.064 0.064 0.096 0.192 0.16 0.256 2.08 2.048 4.608 3.264 7.008 4.64 1.184 0.672 2.176 1.728 3.392 2.208 3.872 1.6 7.968 2.4 12.096 2.4 4.064 0 8.128-0.8 11.968-2.336 1.248-0.512 2.208-1.536 3.392-2.176 2.4-1.344 4.896-2.528 6.944-4.544 0.064-0.064 0.096-0.192 0.192-0.256 0.064-0.096 0.16-0.128 0.256-0.192l256.288-259.008c12.448-12.576 12.32-32.8-0.256-45.248C745.12 344.384 724.8 344.48 712.416 357.056z" p-id="13523"></path><path d="M517.44 64.48c-3.552-0.608-7.168-0.64-10.72-0.032-95.712 16.064-408 77.728-408 196.864 0 385.792 312.032 701.344 413.312 701.344 99.52 0 418.688-323.488 418.688-701.344C930.688 147.936 641.696 85.888 517.44 64.48zM512 898.624C453.216 892.992 162.688 617.44 162.688 261.312c0-38.464 165.792-101.344 349.248-132.832 186.336 32.768 354.752 95.68 354.752 132.832C866.688 616.736 571.68 892.8 512 898.624z" p-id="13524"></path></svg>