<?xml version="1.0" standalone="no"?><!DOCTYPE svg PUBLIC "-//W3C//DTD SVG 1.1//EN" "http://www.w3.org/Graphics/SVG/1.1/DTD/svg11.dtd"><svg t="1486641755086" class="icon" style="" viewBox="0 0 1024 1024" version="1.1" xmlns="http://www.w3.org/2000/svg" p-id="10548" xmlns:xlink="http://www.w3.org/1999/xlink" width="16" height="16"><defs><style type="text/css"></style></defs><path d="M832 96 192 96C139.072 96 96 139.072 96 192l0 640c0 52.928 43.072 96 96 96l640 0c52.928 0 96-43.072 96-96L928 192C928 139.072 884.928 96 832 96zM727.232 438.432l-256.224 259.008c-0.064 0.064-0.192 0.096-0.256 0.192-0.096 0.064-0.096 0.192-0.192 0.256-2.048 1.984-4.576 3.2-6.944 4.544-1.184 0.672-2.144 1.696-3.392 2.176-3.84 1.536-7.904 2.336-11.968 2.336-4.096 0-8.224-0.8-12.096-2.4-1.28-0.544-2.304-1.632-3.52-2.304-2.368-1.344-4.832-2.528-6.88-4.544-0.064-0.064-0.096-0.192-0.16-0.256-0.064-0.096-0.192-0.096-0.256-0.192l-126.016-129.504c-12.32-12.672-12.032-32.928 0.64-45.248 12.672-12.288 32.896-12.064 45.248 0.64l103.264 106.112 233.28-235.808c12.416-12.576 32.704-12.672 45.248-0.256C739.52 405.632 739.648 425.888 727.232 438.432z" p-id="10549"></path></svg>