<?xml version="1.0" standalone="no"?><!DOCTYPE svg PUBLIC "-//W3C//DTD SVG 1.1//EN" "http://www.w3.org/Graphics/SVG/1.1/DTD/svg11.dtd"><svg t="1486641429379" class="icon" style="" viewBox="0 0 1024 1024" version="1.1" xmlns="http://www.w3.org/2000/svg" p-id="5343" xmlns:xlink="http://www.w3.org/1999/xlink" width="16" height="16"><defs><style type="text/css"></style></defs><path d="M832 928 192 928c-52.928 0-96-43.072-96-96L96 192c0-52.928 43.072-96 96-96l640 0c52.928 0 96 43.072 96 96l0 640C928 884.928 884.928 928 832 928zM192 160C174.368 160 160 174.368 160 192l0 640c0 17.664 14.368 32 32 32l640 0c17.664 0 32-14.336 32-32L864 192c0-17.632-14.336-32-32-32L192 160z" p-id="5344"></path></svg>