<?xml version="1.0" standalone="no"?><!DOCTYPE svg PUBLIC "-//W3C//DTD SVG 1.1//EN" "http://www.w3.org/Graphics/SVG/1.1/DTD/svg11.dtd"><svg t="1486603162283" class="icon" style="" viewBox="0 0 1024 1024" version="1.1" xmlns="http://www.w3.org/2000/svg" p-id="15595" xmlns:xlink="http://www.w3.org/1999/xlink" width="16" height="16"><defs><style type="text/css"></style></defs><path d="M243.264 815.936m-80 0a80 80 0 1 0 160 0 80 80 0 1 0-160 0Z" p-id="15596"></path><path d="M256 128c-22.848 0-45.984 1.184-68.672 3.456a32.064 32.064 0 0 0 6.464 63.712A611.648 611.648 0 0 1 256 192c335.264 0 608 272.736 608 608 0 27.168-0.64 47.168-1.888 61.12a32 32 0 0 0 63.744 5.76c1.92-21.216 2.144-48.32 2.144-66.88C928 429.44 626.528 128 256 128z" p-id="15597"></path><path d="M256 416c-23.968 0-47.872 2.208-71.136 6.592a32 32 0 0 0 11.808 62.88A324.032 324.032 0 0 1 256 480c176.448 0 320 143.552 320 320 0 19.456-1.76 38.944-5.216 57.92a31.968 31.968 0 1 0 62.944 11.52c4.16-22.752 6.272-46.112 6.272-69.44 0-211.744-172.256-384-384-384z" p-id="15598"></path></svg>