<?xml version="1.0" standalone="no"?><!DOCTYPE svg PUBLIC "-//W3C//DTD SVG 1.1//EN" "http://www.w3.org/Graphics/SVG/1.1/DTD/svg11.dtd"><svg t="1486641863283" class="icon" style="" viewBox="0 0 1024 1024" version="1.1" xmlns="http://www.w3.org/2000/svg" p-id="13004" xmlns:xlink="http://www.w3.org/1999/xlink" width="16" height="16"><defs><style type="text/css"></style></defs><path d="M900.64 379.808l-263.072-256.032c-36.448-35.328-105.76-35.392-142.304 0.096l-327.04 319.904c-56.416 54.72-70.72 76.704-70.72 150.976l0 143.936c0 132.768 26.976 192 186.912 192l131.872 0c81.12 0 128.448-46.656 193.952-111.264l290.016-297.696c18.592-17.984 29.248-43.968 29.248-71.264C929.504 423.36 918.976 397.6 900.64 379.808zM323.008 786.752c-52.928 0-96-43.072-96-96s43.072-96 96-96 96 43.072 96 96S375.936 786.752 323.008 786.752z" p-id="13005"></path></svg>