<?xml version="1.0" standalone="no"?><!DOCTYPE svg PUBLIC "-//W3C//DTD SVG 1.1//EN" "http://www.w3.org/Graphics/SVG/1.1/DTD/svg11.dtd"><svg t="1486641791084" class="icon" style="" viewBox="0 0 1024 1024" version="1.1" xmlns="http://www.w3.org/2000/svg" p-id="11066" xmlns:xlink="http://www.w3.org/1999/xlink" width="16" height="16"><defs><style type="text/css"></style></defs><path d="M512 64C264.96 64 64 264.96 64 512s200.96 448 448 448 448-200.96 448-448S759.04 64 512 64zM671.264 576l-191.104 0C462.496 576 448 561.536 448 543.84L448 289.088c0-17.664 14.336-32 32-32s32 14.336 32 32L512 512l159.264 0c17.696 0 32 14.336 32 32C703.264 561.696 688.928 576 671.264 576z" p-id="11067"></path></svg>