<?xml version="1.0" standalone="no"?><!DOCTYPE svg PUBLIC "-//W3C//DTD SVG 1.1//EN" "http://www.w3.org/Graphics/SVG/1.1/DTD/svg11.dtd"><svg t="1486641600834" class="icon" style="" viewBox="0 0 1024 1024" version="1.1" xmlns="http://www.w3.org/2000/svg" p-id="8070" xmlns:xlink="http://www.w3.org/1999/xlink" width="16" height="16"><defs><style type="text/css"></style></defs><path d="M864 832 160 832c-22.4 0-44.8-12.8-54.4-32-12.8-19.2-9.6-44.8 3.2-64l172.8-268.8 179.2-275.2C470.4 172.8 492.8 160 512 160c0 0 0 0 0 0 22.4 0 41.6 9.6 54.4 28.8l352 544c12.8 19.2 12.8 44.8 3.2 64C908.8 819.2 889.6 832 864 832zM512 224 160 768l704 0L512 224z" p-id="8071"></path></svg>