<?xml version="1.0" standalone="no"?><!DOCTYPE svg PUBLIC "-//W3C//DTD SVG 1.1//EN" "http://www.w3.org/Graphics/SVG/1.1/DTD/svg11.dtd"><svg t="1486602943520" class="icon" style="" viewBox="0 0 1024 1024" version="1.1" xmlns="http://www.w3.org/2000/svg" p-id="11708" xmlns:xlink="http://www.w3.org/1999/xlink" width="16" height="16"><defs><style type="text/css"></style></defs><path d="M244.32 625.056c-8.032 0-16.096-3.008-22.304-9.056-12.672-12.32-12.96-32.608-0.64-45.248 77.92-80.128 182.432-124.256 294.24-124.256 109.44 0 212.448 42.56 289.984 119.808 12.512 12.48 12.576 32.704 0.064 45.248-12.448 12.544-32.672 12.64-45.248 0.064-65.44-65.216-152.384-101.12-244.768-101.12-94.4 0-182.592 37.248-248.384 104.864C260.992 621.824 252.672 625.056 244.32 625.056z" p-id="11709"></path><path d="M97.632 462.432c-8.128 0-16.288-3.104-22.528-9.28-12.544-12.448-12.64-32.704-0.192-45.248 117.44-118.368 273.952-183.552 440.704-183.552 164.48 0 319.456 63.68 436.512 179.264 12.576 12.416 12.672 32.672 0.256 45.248-12.416 12.608-32.672 12.704-45.248 0.288-104.928-103.68-244-160.8-391.488-160.8-149.568 0-289.952 58.464-395.296 164.64C114.08 459.296 105.856 462.432 97.632 462.432z" p-id="11710"></path><path d="M511.424 832.736c-7.84 0-15.648-2.848-21.76-8.576l-95.2-88.384c-12.64-11.68-13.728-31.328-2.464-44.352 30.304-35.136 73.856-55.296 119.456-55.296 47.744 0 92.576 21.728 122.976 59.584 10.752 13.408 8.992 32.928-4 44.224l-98.048 84.928C526.368 830.144 518.912 832.736 511.424 832.736zM464.256 713.28l47.904 44.512 49.344-42.752C532.768 696.448 493.856 695.712 464.256 713.28z" p-id="11711"></path></svg>